# xmcd CD database file
#
# Track frame offsets:
#	150
#	17742
#	36400
#
# Disc length: 719 seconds
#
# Revision: 0
# Processed by: cddbd v1.5PL3 Copyright (c) Steve Scherf et al.
# Submitted via: CDex 1.51
#
DISCID=1e02cd03
DTITLE=推定少女 - しょうちのすけ
DYEAR=1900
DGENRE=J-POP
TTITLE0=しょうちのすけ
TTITLE1=初めてのブラジャー
TTITLE2=しょうちのすけ (カラオケ)
EXTD=
EXTT0=
EXTT1=
EXTT2=
PLAYORDER=
